name C:\Users\u0101727\Documents\MyRepositories\upper-imu-dc\OpenSim\subject0\MA\ResultsMA\grid_4nodes_9dim\angles_20.mot
datacolumns 10
datarows 37
range 2000.01000000 2000.37000000
endheader 
time	clav_prot	clav_elev	scapula_abduction	scapula_elevation	scapula_upward_rot	scapula_winging	plane_elv	shoulder_elv	axial_rot	
       2000.01000000	        -50.00000000	        -10.00000000	        -40.00000000	         -3.33333333	         30.00000000	         10.00000000	        -90.00000000	        -10.00000000	         90.00000000	
       2000.02000000	        -38.33333333	        -10.00000000	        -40.00000000	         -3.33333333	         30.00000000	         10.00000000	        -90.00000000	        -10.00000000	         90.00000000	
       2000.03000000	        -26.66666667	        -10.00000000	        -40.00000000	         -3.33333333	         30.00000000	         10.00000000	        -90.00000000	        -10.00000000	         90.00000000	
       2000.04000000	        -15.00000000	        -10.00000000	        -40.00000000	         -3.33333333	         30.00000000	         10.00000000	        -90.00000000	        -10.00000000	         90.00000000	
       2000.05000000	        -50.00000000	          0.00000000	        -40.00000000	         -3.33333333	         30.00000000	         10.00000000	        -90.00000000	        -10.00000000	         90.00000000	
       2000.06000000	        -38.33333333	          0.00000000	        -40.00000000	         -3.33333333	         30.00000000	         10.00000000	        -90.00000000	        -10.00000000	         90.00000000	
       2000.07000000	        -26.66666667	          0.00000000	        -40.00000000	         -3.33333333	         30.00000000	         10.00000000	        -90.00000000	        -10.00000000	         90.00000000	
       2000.08000000	        -15.00000000	          0.00000000	        -40.00000000	         -3.33333333	         30.00000000	         10.00000000	        -90.00000000	        -10.00000000	         90.00000000	
       2000.09000000	        -50.00000000	         10.00000000	        -40.00000000	         -3.33333333	         30.00000000	         10.00000000	        -90.00000000	        -10.00000000	         90.00000000	
       2000.10000000	        -38.33333333	         10.00000000	        -40.00000000	         -3.33333333	         30.00000000	         10.00000000	        -90.00000000	        -10.00000000	         90.00000000	
       2000.11000000	        -26.66666667	         10.00000000	        -40.00000000	         -3.33333333	         30.00000000	         10.00000000	        -90.00000000	        -10.00000000	         90.00000000	
       2000.12000000	        -15.00000000	         10.00000000	        -40.00000000	         -3.33333333	         30.00000000	         10.00000000	        -90.00000000	        -10.00000000	         90.00000000	
       2000.13000000	        -50.00000000	         20.00000000	        -40.00000000	         -3.33333333	         30.00000000	         10.00000000	        -90.00000000	        -10.00000000	         90.00000000	
       2000.14000000	        -38.33333333	         20.00000000	        -40.00000000	         -3.33333333	         30.00000000	         10.00000000	        -90.00000000	        -10.00000000	         90.00000000	
       2000.15000000	        -26.66666667	         20.00000000	        -40.00000000	         -3.33333333	         30.00000000	         10.00000000	        -90.00000000	        -10.00000000	         90.00000000	
       2000.16000000	        -15.00000000	         20.00000000	        -40.00000000	         -3.33333333	         30.00000000	         10.00000000	        -90.00000000	        -10.00000000	         90.00000000	
       2000.17000000	        -50.00000000	        -10.00000000	        -21.66666667	         -3.33333333	         30.00000000	         10.00000000	        -90.00000000	        -10.00000000	         90.00000000	
       2000.18000000	        -38.33333333	        -10.00000000	        -21.66666667	         -3.33333333	         30.00000000	         10.00000000	        -90.00000000	        -10.00000000	         90.00000000	
       2000.19000000	        -26.66666667	        -10.00000000	        -21.66666667	         -3.33333333	         30.00000000	         10.00000000	        -90.00000000	        -10.00000000	         90.00000000	
       2000.20000000	        -15.00000000	        -10.00000000	        -21.66666667	         -3.33333333	         30.00000000	         10.00000000	        -90.00000000	        -10.00000000	         90.00000000	
       2000.21000000	        -50.00000000	          0.00000000	        -21.66666667	         -3.33333333	         30.00000000	         10.00000000	        -90.00000000	        -10.00000000	         90.00000000	
       2000.22000000	        -38.33333333	          0.00000000	        -21.66666667	         -3.33333333	         30.00000000	         10.00000000	        -90.00000000	        -10.00000000	         90.00000000	
       2000.23000000	        -26.66666667	          0.00000000	        -21.66666667	         -3.33333333	         30.00000000	         10.00000000	        -90.00000000	        -10.00000000	         90.00000000	
       2000.24000000	        -15.00000000	          0.00000000	        -21.66666667	         -3.33333333	         30.00000000	         10.00000000	        -90.00000000	        -10.00000000	         90.00000000	
       2000.25000000	        -50.00000000	         10.00000000	        -21.66666667	         -3.33333333	         30.00000000	         10.00000000	        -90.00000000	        -10.00000000	         90.00000000	
       2000.26000000	        -38.33333333	         10.00000000	        -21.66666667	         -3.33333333	         30.00000000	         10.00000000	        -90.00000000	        -10.00000000	         90.00000000	
       2000.27000000	        -26.66666667	         10.00000000	        -21.66666667	         -3.33333333	         30.00000000	         10.00000000	        -90.00000000	        -10.00000000	         90.00000000	
       2000.28000000	        -15.00000000	         10.00000000	        -21.66666667	         -3.33333333	         30.00000000	         10.00000000	        -90.00000000	        -10.00000000	         90.00000000	
       2000.29000000	        -50.00000000	         20.00000000	        -21.66666667	         -3.33333333	         30.00000000	         10.00000000	        -90.00000000	        -10.00000000	         90.00000000	
       2000.30000000	        -38.33333333	         20.00000000	        -21.66666667	         -3.33333333	         30.00000000	         10.00000000	        -90.00000000	        -10.00000000	         90.00000000	
       2000.31000000	        -26.66666667	         20.00000000	        -21.66666667	         -3.33333333	         30.00000000	         10.00000000	        -90.00000000	        -10.00000000	         90.00000000	
       2000.32000000	        -15.00000000	         20.00000000	        -21.66666667	         -3.33333333	         30.00000000	         10.00000000	        -90.00000000	        -10.00000000	         90.00000000	
       2000.33000000	        -50.00000000	        -10.00000000	         -3.33333333	         -3.33333333	         30.00000000	         10.00000000	        -90.00000000	        -10.00000000	         90.00000000	
       2000.34000000	        -38.33333333	        -10.00000000	         -3.33333333	         -3.33333333	         30.00000000	         10.00000000	        -90.00000000	        -10.00000000	         90.00000000	
       2000.35000000	        -26.66666667	        -10.00000000	         -3.33333333	         -3.33333333	         30.00000000	         10.00000000	        -90.00000000	        -10.00000000	         90.00000000	
       2000.36000000	        -15.00000000	        -10.00000000	         -3.33333333	         -3.33333333	         30.00000000	         10.00000000	        -90.00000000	        -10.00000000	         90.00000000	
       2000.37000000	        -50.00000000	          0.00000000	         -3.33333333	         -3.33333333	         30.00000000	         10.00000000	        -90.00000000	        -10.00000000	         90.00000000	
